<?xml version="1.0" standalone="no"?>
<!DOCTYPE svg PUBLIC "-//W3C//DTD SVG 20010904//EN"
 "http://www.w3.org/TR/2001/REC-SVG-20010904/DTD/svg10.dtd">
<svg version="1.0" xmlns="http://www.w3.org/2000/svg"
 width="256.000000pt" height="256.000000pt" viewBox="0 0 256.000000 256.000000"
 preserveAspectRatio="xMidYMid meet">
<metadata>
Created by potrace 1.14, written by Peter Selinger 2001-2017
</metadata>
<g transform="translate(0.000000,256.000000) scale(0.100000,-0.100000)"
fill="#000000" stroke="none">
<path d="M1095 2540 c6 -10 -7 -14 -34 -11 -7 2 -10 -2 -7 -7 3 -5 -5 -9 -19
-9 -16 0 -22 4 -18 11 4 6 -1 5 -10 -3 -14 -11 -17 -11 -17 0 0 9 -3 10 -8 4
-4 -6 -23 -12 -42 -14 -19 -1 -40 -7 -45 -11 -6 -5 -19 -8 -30 -6 -11 2 -26
-3 -33 -11 -8 -7 -18 -10 -24 -7 -7 4 -8 2 -4 -4 4 -7 2 -12 -5 -12 -7 0 -9
-3 -6 -6 4 -4 -11 -16 -33 -26 -22 -11 -40 -24 -40 -30 0 -5 -4 -6 -10 -3 -5
3 -10 1 -10 -4 0 -6 -6 -10 -12 -8 -7 1 -12 -4 -10 -11 1 -8 -1 -11 -6 -8 -13
8 -106 -80 -98 -92 3 -5 -1 -15 -9 -22 -8 -7 -15 -26 -15 -43 0 -17 -3 -28 -6
-24 -11 11 -34 -21 -34 -47 0 -14 -5 -26 -11 -26 -8 0 -7 -6 2 -17 8 -9 9 -14
3 -10 -8 5 -13 -6 -16 -32 -4 -46 0 -63 13 -55 5 3 9 0 9 -6 0 -6 5 -8 10 -5
8 5 16 -74 11 -107 0 -5 4 -8 9 -8 6 0 10 -9 10 -21 0 -11 5 -17 10 -14 6 4
10 -5 10 -19 0 -14 5 -26 11 -26 8 0 8 -4 0 -13 -8 -10 -7 -17 2 -27 9 -10 9
-11 0 -6 -9 5 -13 -4 -14 -31 -1 -21 -1 -41 0 -45 0 -5 -4 -8 -9 -8 -6 0 -10
-11 -10 -24 0 -35 -19 -45 -93 -48 -37 -1 -67 -6 -67 -10 0 -5 -5 -8 -11 -8
-5 0 -7 6 -3 13 6 9 5 9 -8 0 -8 -7 -17 -10 -20 -8 -3 3 -8 -3 -11 -14 -6 -23
20 -64 34 -55 5 3 8 1 7 -5 -4 -13 93 -101 111 -101 8 0 12 -3 8 -6 -7 -8 36
-53 46 -47 4 2 7 -5 7 -17 0 -12 4 -19 8 -16 10 6 9 -45 -2 -62 -4 -7 -2 -12
6 -12 10 0 9 -3 -1 -9 -11 -7 -12 -13 -3 -23 7 -8 7 -19 2 -28 -5 -8 -5 -19 1
-26 5 -6 11 -40 14 -75 5 -85 6 -89 19 -89 7 0 13 -12 14 -27 1 -15 7 -30 14
-34 6 -4 8 -14 5 -23 -4 -9 -2 -16 3 -16 12 0 27 -44 32 -97 1 -12 6 -19 10
-17 4 3 8 -2 8 -11 0 -9 14 -30 30 -48 17 -18 28 -37 26 -44 -3 -6 2 -14 11
-17 8 -4 13 -13 9 -21 -3 -8 0 -15 6 -15 7 0 7 -4 -1 -13 -8 -10 -7 -17 1 -25
7 -7 8 -12 2 -12 -6 0 -10 -25 -9 -60 1 -33 -2 -57 -7 -54 -12 7 -6 -19 7 -28
6 -5 5 -8 -3 -8 -7 0 -11 -4 -7 -10 7 -11 -16 -50 -30 -50 -18 0 -65 -24 -65
-33 0 -5 -4 -6 -8 -3 -5 3 -21 -1 -36 -9 -18 -10 -24 -10 -19 -2 5 9 3 9 -9 0
-8 -7 -18 -10 -21 -6 -4 3 -7 1 -7 -6 0 -7 -4 -9 -10 -6 -5 3 -10 2 -10 -4 0
-5 -9 -8 -19 -6 -11 2 -22 -3 -25 -11 -3 -9 -10 -13 -15 -10 -5 3 -14 -1 -21
-10 -7 -8 -20 -12 -29 -9 -8 3 -12 3 -8 -1 10 -10 -24 -33 -50 -34 -13 0 -23
-5 -23 -11 0 -5 -4 -8 -8 -5 -5 3 -21 -2 -36 -10 -16 -7 -37 -14 -47 -14 -11
0 -19 -4 -19 -10 0 -5 -11 -10 -25 -10 -14 0 -25 -4 -25 -9 0 -8 -57 -25 -74
-22 -5 1 -6 -4 -3 -12 4 -10 -2 -13 -19 -11 -13 1 -24 -2 -24 -7 0 -6 -4 -7
-10 -4 -5 3 -10 1 -10 -5 0 -6 -5 -8 -10 -5 -6 3 -10 0 -10 -7 0 -9 -3 -9 -10
2 -7 11 -10 4 -10 -28 l0 -42 1202 2 1203 3 -3 43 c-2 24 2 49 8 57 7 8 10 22
6 30 -3 9 -2 13 4 10 6 -3 10 -3 11 2 2 30 11 59 19 67 6 6 10 18 10 29 0 10
4 16 9 13 4 -3 7 6 5 19 -1 14 1 25 5 25 8 0 13 29 14 77 0 18 3 33 7 33 3 0
8 54 9 121 1 67 -1 119 -6 116 -4 -3 -9 25 -11 61 -1 36 -6 68 -11 72 -4 3 -7
14 -5 25 2 11 -2 22 -8 26 -5 4 -12 30 -14 60 -3 29 -12 65 -21 79 -10 14 -17
37 -16 52 0 16 -5 28 -11 28 -6 0 -5 4 3 9 9 6 10 10 2 16 -9 5 -9 10 -1 20 8
9 8 15 0 20 -5 3 -10 22 -10 41 0 19 -4 34 -10 34 -5 0 -10 15 -10 33 0 24 -3
28 -10 17 -7 -12 -9 -10 -7 7 0 12 4 20 8 17 9 -5 5 23 -4 32 -4 4 -1 14 6 22
9 13 9 14 0 8 -10 -5 -13 2 -13 28 0 19 -5 38 -11 41 -6 4 -8 13 -5 20 2 7 2
16 -2 20 -4 4 -8 11 -8 16 -1 5 -3 11 -4 14 -3 6 -2 4 -15 60 -4 22 -8 43 -7
48 1 4 -2 7 -6 7 -7 0 -11 16 -14 58 -1 6 -5 12 -10 12 -4 0 -8 8 -8 18 0 10
-6 24 -12 31 -8 8 -8 11 -2 8 7 -4 12 3 12 18 0 14 -4 25 -9 25 -5 0 -9 10 -9
23 0 12 -9 29 -20 37 -11 8 -20 18 -20 23 0 5 -13 21 -28 35 -16 15 -34 37
-41 50 -7 12 -16 20 -21 17 -5 -3 -10 5 -12 17 -2 13 -9 22 -16 21 -6 -2 -12
7 -12 19 0 12 -3 19 -6 15 -8 -8 -34 18 -34 33 0 6 -16 27 -35 46 -19 18 -35
39 -35 45 0 7 -3 10 -6 6 -4 -3 -28 16 -55 44 -26 27 -51 49 -56 49 -5 0 -16
8 -25 18 -28 29 -46 41 -52 35 -3 -4 -6 1 -6 10 0 9 -7 17 -15 17 -8 0 -15 5
-15 11 0 5 -5 7 -10 4 -6 -4 -16 -2 -23 4 -16 12 -99 15 -152 4 -22 -5 -44 -8
-50 -8 -20 1 -170 89 -192 112 -13 13 -23 20 -23 16 0 -4 -6 -1 -13 7 -7 9
-19 15 -27 15 -8 0 -21 5 -28 12 -8 7 -17 11 -21 9 -4 -3 -13 4 -21 14 -8 10
-17 17 -22 14 -4 -3 -8 2 -8 10 0 11 -10 16 -31 16 -17 0 -28 -4 -24 -10z"/>
</g>
</svg>
